<svg width="40" height="40" viewBox="0 0 40 40" fill="none" xmlns="http://www.w3.org/2000/svg">
<g id="Frame" clip-path="url(#clip0_2138_66019)">
<path id="Vector" d="M11.1667 20C11.1729 21.8471 11.4042 23.6866 11.8556 25.4778H19.0556V14.9445H11.7556C11.3715 16.6024 11.1739 18.2981 11.1667 20Z" fill="#22C55E"/>
<path id="Vector_2" d="M20.9444 14.9445V25.4778H28.1444C28.6145 23.6889 28.8645 21.8494 28.8889 20C28.8853 18.2986 28.6915 16.6029 28.3111 14.9445H20.9444Z" fill="#22C55E"/>
<path id="Vector_3" d="M20 2.22223C16.4839 2.22223 13.0467 3.26488 10.1232 5.21832C7.19965 7.17177 4.92103 9.94828 3.57547 13.1967C2.22992 16.4452 1.87786 20.0197 2.56382 23.4683C3.24978 26.9168 4.94295 30.0845 7.42921 32.5708C9.91548 35.0571 13.0832 36.7502 16.5317 37.4362C19.9803 38.1222 23.5548 37.7701 26.8033 36.4245C30.0517 35.079 32.8282 32.8004 34.7817 29.8768C36.7351 26.9533 37.7778 23.5161 37.7778 20C37.7778 15.285 35.9048 10.7632 32.5708 7.42922C29.2368 4.09524 24.715 2.22223 20 2.22223ZM33.5778 27.4556H29.5556C28.7951 29.8365 27.6706 32.0853 26.2222 34.1222C25.1534 34.5881 24.0351 34.931 22.8889 35.1445C24.9416 32.9139 26.5215 30.2908 27.5333 27.4333H20.9556V35.3778H19.0778V27.4556H12.4667C13.4771 30.317 15.0571 32.944 17.1111 35.1778C15.9885 34.9666 14.8929 34.6312 13.8444 34.1778C12.3909 32.1238 11.2663 29.8558 10.5111 27.4556H6.42222C6.06727 26.808 5.75907 26.1359 5.5 25.4445H9.94444C9.52799 23.6592 9.31184 21.8331 9.3 20C9.30061 18.3008 9.47937 16.6064 9.83333 14.9445H5.28889C5.52255 14.255 5.80474 13.5829 6.13333 12.9333H10.3667C11.161 10.2878 12.3928 7.79407 14.0111 5.55556C15.0373 5.13036 16.1065 4.81742 17.2 4.62223C14.9896 6.9945 13.3215 9.819 12.3111 12.9H19.0778V4.44445H20.9556V12.9333H27.7222C26.7137 9.85727 25.0494 7.03677 22.8444 4.66667C23.9362 4.84778 25.0053 5.14579 26.0333 5.55556C27.6422 7.7779 28.8701 10.2524 29.6667 12.8778H33.8556C34.1841 13.5274 34.4663 14.1994 34.7 14.8889H30.1889C30.5505 16.5686 30.733 18.2819 30.7333 20C30.7276 21.8439 30.5152 23.6813 30.1 25.4778H34.5444C34.2695 26.1591 33.9465 26.8201 33.5778 27.4556Z" fill="#22C55E"/>
</g>
<defs>
<clipPath id="clip0_2138_66019">
<rect width="40" height="40" fill="white"/>
</clipPath>
</defs>
</svg>
