<svg width="40" height="40" viewBox="0 0 40 40" fill="none" xmlns="http://www.w3.org/2000/svg">
<path d="M28.3334 17.8298V5.44651C28.3334 4.52985 27.5834 3.77985 26.6667 3.77985H13.3334C12.4167 3.77985 11.6667 4.52985 11.6667 5.44651V17.8298C11.6667 18.4132 11.9667 18.9632 12.4834 19.2632L19.45 23.4465L17.8 27.3465L14.1 27.6632C13.3334 27.7298 13.0334 28.6465 13.6 29.1298L16.4167 31.5632L15.5667 35.1965C15.4 35.9132 16.1834 36.4798 16.8167 36.0965L20 34.1632L23.1834 36.0798C23.8167 36.4632 24.6 35.8965 24.4334 35.1798L23.5834 31.5465L26.4 29.1132C26.95 28.6298 26.6667 27.7132 25.9167 27.6465L22.2167 27.3298L20.5667 23.4298L27.5334 19.2465C28.0334 18.9632 28.3334 18.4298 28.3334 17.8298ZM21.6667 20.8298L20 21.8298L18.3334 20.8298V5.44651H21.6667V20.8298Z" fill="#F16122"/>
</svg>
