<svg width="32" height="32" viewBox="0 0 32 32" fill="none" xmlns="http://www.w3.org/2000/svg">
<path d="M16 32C7.15294 32 0 24.8471 0 16C0 7.15294 7.15294 0 16 0C24.8471 0 32 7.15294 32 16C32 24.8471 24.7529 32 16 32ZM16 1.88235C8.18824 1.88235 1.88235 8.18824 1.88235 16C1.88235 23.8118 8.18824 30.1176 16 30.1176C23.8118 30.1176 30.1176 23.8118 30.1176 16C30.1176 8.18824 23.7176 1.88235 16 1.88235Z" fill="#2B2B23"/>
<path d="M6.77646 27.5762L5.08234 26.8232C5.55293 25.6938 7.05881 25.035 8.65881 24.2821C10.2588 23.5291 12.2353 22.6821 12.2353 21.6468V20.235C11.6706 19.7644 10.7294 18.7291 10.5412 17.2232C10.0706 16.7526 9.31764 15.9056 9.31764 14.7762C9.31764 14.1173 9.59999 13.5526 9.78823 13.1762C9.59999 12.4232 9.41176 11.0115 9.41176 9.88205C9.41176 6.21146 11.9529 3.7644 16 3.7644C17.1294 3.7644 18.5412 4.04676 19.2941 4.89382C21.0823 5.27029 22.5882 7.34087 22.5882 9.88205C22.5882 11.4821 22.3059 12.7997 22.1176 13.4585C22.3059 13.7409 22.4941 14.2115 22.4941 14.7762C22.4941 15.9997 21.8353 16.8468 21.2706 17.2232C21.0823 18.7291 20.2353 19.6703 19.6706 20.1409V21.6468C19.6706 22.4938 21.3647 23.1526 22.8706 23.7173C24.6588 24.3762 26.5412 25.1291 27.2 26.635L25.4118 27.2938C25.1294 26.5409 23.6235 25.9762 22.2118 25.5056C20.1412 24.7526 17.7882 23.9056 17.7882 21.7409V19.2938L18.2588 19.0115C18.2588 19.0115 19.3882 18.2585 19.3882 16.7526V16.0938L19.9529 15.8115C20.047 15.8115 20.5176 15.5291 20.5176 14.7762C20.5176 14.5879 20.3294 14.3056 20.2353 14.2115L19.8588 13.835L20.047 13.3644C20.047 13.3644 20.5176 11.8585 20.5176 9.97617C20.5176 8.18793 19.4823 6.87029 18.6353 6.87029H18.0706L17.7882 6.3997C17.7882 6.02323 17.1294 5.64676 16 5.64676C13.0823 5.64676 11.2941 7.24676 11.2941 9.88205C11.2941 11.1056 11.7647 13.1762 11.7647 13.1762L11.8588 13.6468L11.4823 14.1173C11.3882 14.1173 11.2 14.3997 11.2 14.7762C11.2 15.2468 11.7647 15.8115 12.047 15.9997L12.4235 16.2821V16.7526C12.4235 18.1644 13.647 18.9173 13.647 19.0115L14.1176 19.2938V21.7409C14.1176 23.9997 11.6706 25.1291 9.41176 26.0703C8.37646 26.4468 6.9647 27.1056 6.77646 27.5762Z" fill="#2B2B23"/>
</svg>
