<svg width="16" height="16" viewBox="0 0 16 16" fill="none" xmlns="http://www.w3.org/2000/svg">
<g id="Style=Round">
<path id="Vector" d="M13.099 6.19634L9.87236 5.91634L8.61236 2.94968C8.38569 2.40968 7.61236 2.40968 7.38569 2.94968L6.12569 5.92301L2.90569 6.19634C2.31903 6.24301 2.07903 6.97634 2.52569 7.36301L4.97236 9.48301L4.23903 12.6297C4.10569 13.203 4.72569 13.6563 5.23236 13.3497L7.99903 11.683L10.7657 13.3563C11.2724 13.663 11.8924 13.2097 11.759 12.6363L11.0257 9.48301L13.4724 7.36301C13.919 6.97634 13.6857 6.24301 13.099 6.19634ZM7.99903 10.4363V4.23634L9.13903 6.92968L12.059 7.18301L9.84569 9.10301L10.5124 11.9563L7.99903 10.4363Z" fill="#FB923C"/>
</g>
</svg>
